<mxfile host="Electron" agent="Mozilla/5.0 (Windows NT 10.0; Win64; x64) AppleWebKit/537.36 (KHTML, like Gecko) draw.io/28.1.2 Chrome/138.0.7204.243 Electron/37.4.0 Safari/537.36" version="28.1.2">
  <diagram name="Page-1" id="EG5gabHoP7FlWOFb9aYB">
    <mxGraphModel dx="4552" dy="2878" grid="1" gridSize="10" guides="1" tooltips="1" connect="1" arrows="1" fold="1" page="1" pageScale="1" pageWidth="850" pageHeight="1100" math="0" shadow="0">
      <root>
        <mxCell id="0" />
        <mxCell id="1" parent="0" />
        <mxCell id="uPkC5kLJivQ958copBq6-1" value="CarLights1: Green&lt;div&gt;CarLights2: Red&lt;/div&gt;&lt;div&gt;Pedestrian1: Red&lt;/div&gt;&lt;div&gt;Pedestrian2: White&lt;/div&gt;&lt;div&gt;7-segment: void&lt;/div&gt;" style="strokeWidth=2;html=1;shape=mxgraph.flowchart.start_1;whiteSpace=wrap;" parent="1" vertex="1">
          <mxGeometry x="-750" y="270" width="170" height="100" as="geometry" />
        </mxCell>
        <mxCell id="UEj1agWDMKfItvRINsRK-4" value="3 sec" style="text;html=1;align=center;verticalAlign=middle;resizable=0;points=[];autosize=1;strokeColor=none;fillColor=none;" parent="1" vertex="1">
          <mxGeometry x="250" y="820" width="50" height="30" as="geometry" />
        </mxCell>
        <mxCell id="UEj1agWDMKfItvRINsRK-5" value="CarLights1: Red&lt;div&gt;CarLights2: Green&lt;/div&gt;&lt;div&gt;Pedestrian1: Red&lt;/div&gt;&lt;div&gt;Pedestrian2: White&lt;/div&gt;&lt;div&gt;7-segment: void&lt;/div&gt;" style="strokeWidth=2;html=1;shape=mxgraph.flowchart.start_1;whiteSpace=wrap;" parent="1" vertex="1">
          <mxGeometry x="5" y="870" width="180" height="110" as="geometry" />
        </mxCell>
        <mxCell id="UEj1agWDMKfItvRINsRK-7" value="8 sec" style="text;html=1;align=center;verticalAlign=middle;resizable=0;points=[];autosize=1;strokeColor=none;fillColor=none;" parent="1" vertex="1">
          <mxGeometry x="-60" y="890" width="50" height="30" as="geometry" />
        </mxCell>
        <mxCell id="UEj1agWDMKfItvRINsRK-9" value="7 sec" style="text;html=1;align=center;verticalAlign=middle;resizable=0;points=[];autosize=1;strokeColor=none;fillColor=none;" parent="1" vertex="1">
          <mxGeometry x="-370" y="935" width="50" height="30" as="geometry" />
        </mxCell>
        <mxCell id="UEj1agWDMKfItvRINsRK-15" value="3 sec" style="text;html=1;align=center;verticalAlign=middle;resizable=0;points=[];autosize=1;strokeColor=none;fillColor=none;" parent="1" vertex="1">
          <mxGeometry x="-735" y="415" width="50" height="30" as="geometry" />
        </mxCell>
        <mxCell id="UEj1agWDMKfItvRINsRK-17" value="CarLights1: Red&lt;div&gt;CarLights2: Green&lt;/div&gt;&lt;div&gt;Pedestrian1: Red&lt;/div&gt;&lt;div&gt;Pedestrian2: Flashing Red&lt;/div&gt;&lt;div&gt;7-segment: Countdown start&lt;/div&gt;" style="strokeWidth=2;html=1;shape=mxgraph.flowchart.start_1;whiteSpace=wrap;" parent="1" vertex="1">
          <mxGeometry x="-310" y="860" width="190" height="130" as="geometry" />
        </mxCell>
        <mxCell id="UEj1agWDMKfItvRINsRK-19" value="CarLights1: Red&lt;div&gt;CarLights2:&amp;nbsp;&lt;span style=&quot;background-color: transparent; color: light-dark(rgb(0, 0, 0), rgb(255, 255, 255));&quot;&gt;Yellow&lt;/span&gt;&lt;/div&gt;&lt;div&gt;Pedestrian1: Flashing Red&lt;/div&gt;&lt;div&gt;Pedestrian2: Red&lt;/div&gt;&lt;div&gt;7-segment: Countdown&lt;/div&gt;" style="strokeWidth=2;html=1;shape=mxgraph.flowchart.start_1;whiteSpace=wrap;" parent="1" vertex="1">
          <mxGeometry x="-765" y="870" width="180" height="110" as="geometry" />
        </mxCell>
        <mxCell id="UEj1agWDMKfItvRINsRK-25" value="Button 1 pressed?" style="strokeWidth=2;html=1;shape=mxgraph.flowchart.decision;whiteSpace=wrap;" parent="1" vertex="1">
          <mxGeometry x="-535" y="270" width="150" height="100" as="geometry" />
        </mxCell>
        <mxCell id="UEj1agWDMKfItvRINsRK-26" value="" style="endArrow=classic;html=1;rounded=0;entryX=0;entryY=0.5;entryDx=0;entryDy=0;entryPerimeter=0;exitX=1;exitY=0.5;exitDx=0;exitDy=0;exitPerimeter=0;" parent="1" source="uPkC5kLJivQ958copBq6-1" target="UEj1agWDMKfItvRINsRK-25" edge="1">
          <mxGeometry width="50" height="50" relative="1" as="geometry">
            <mxPoint x="-485" y="405" as="sourcePoint" />
            <mxPoint x="15" y="325" as="targetPoint" />
          </mxGeometry>
        </mxCell>
        <mxCell id="UEj1agWDMKfItvRINsRK-42" value="" style="endArrow=classic;html=1;rounded=0;exitX=0.5;exitY=0;exitDx=0;exitDy=0;exitPerimeter=0;entryX=0;entryY=0.5;entryDx=0;entryDy=0;entryPerimeter=0;" parent="1" source="UEj1agWDMKfItvRINsRK-25" target="UEj1agWDMKfItvRINsRK-40" edge="1">
          <mxGeometry width="50" height="50" relative="1" as="geometry">
            <mxPoint x="-170" y="520" as="sourcePoint" />
            <mxPoint x="-120" y="470" as="targetPoint" />
            <Array as="points">
              <mxPoint x="-460" y="130" />
            </Array>
          </mxGeometry>
        </mxCell>
        <mxCell id="UEj1agWDMKfItvRINsRK-43" value="" style="endArrow=classic;html=1;rounded=0;exitX=0.5;exitY=1;exitDx=0;exitDy=0;exitPerimeter=0;entryX=0;entryY=0.5;entryDx=0;entryDy=0;entryPerimeter=0;" parent="1" source="UEj1agWDMKfItvRINsRK-25" target="UEj1agWDMKfItvRINsRK-61" edge="1">
          <mxGeometry width="50" height="50" relative="1" as="geometry">
            <mxPoint x="-460" y="400" as="sourcePoint" />
            <mxPoint x="-320" y="530" as="targetPoint" />
            <Array as="points">
              <mxPoint x="-460" y="530" />
            </Array>
          </mxGeometry>
        </mxCell>
        <mxCell id="UEj1agWDMKfItvRINsRK-50" value="No" style="text;html=1;align=center;verticalAlign=middle;resizable=0;points=[];autosize=1;strokeColor=none;fillColor=none;" parent="1" vertex="1">
          <mxGeometry x="-500" y="210" width="40" height="30" as="geometry" />
        </mxCell>
        <mxCell id="UEj1agWDMKfItvRINsRK-51" value="Yes" style="text;html=1;align=center;verticalAlign=middle;resizable=0;points=[];autosize=1;strokeColor=none;fillColor=none;" parent="1" vertex="1">
          <mxGeometry x="-500" y="400" width="40" height="30" as="geometry" />
        </mxCell>
        <mxCell id="UEj1agWDMKfItvRINsRK-54" value="CarLights1: Green&lt;div&gt;CarLights2: Red&lt;/div&gt;&lt;div&gt;Pedestrian1: Red&lt;/div&gt;&lt;div&gt;Pedestrian2: Red&lt;/div&gt;&lt;div&gt;7-segment: void&lt;/div&gt;" style="strokeWidth=2;html=1;shape=mxgraph.flowchart.start_1;whiteSpace=wrap;" parent="1" vertex="1">
          <mxGeometry x="-160" y="380" width="190" height="130" as="geometry" />
        </mxCell>
        <mxCell id="UEj1agWDMKfItvRINsRK-55" value="CarLights1: Yellow&lt;div&gt;CarLights2: Red&lt;/div&gt;&lt;div&gt;Pedestrian1: Red&lt;/div&gt;&lt;div&gt;Pedestrian2: Red&lt;/div&gt;&lt;div&gt;7-segment: void&lt;/div&gt;" style="strokeWidth=2;html=1;shape=mxgraph.flowchart.start_1;whiteSpace=wrap;" parent="1" vertex="1">
          <mxGeometry x="110" y="390" width="180" height="110" as="geometry" />
        </mxCell>
        <mxCell id="UEj1agWDMKfItvRINsRK-56" value="7 sec" style="text;html=1;align=center;verticalAlign=middle;resizable=0;points=[];autosize=1;strokeColor=none;fillColor=none;" parent="1" vertex="1">
          <mxGeometry x="50" y="408" width="50" height="30" as="geometry" />
        </mxCell>
        <mxCell id="UEj1agWDMKfItvRINsRK-57" value="CarLights1: Green&lt;div&gt;CarLights2: Red&lt;/div&gt;&lt;div&gt;Pedestrian1: Flashing Red&lt;/div&gt;&lt;div&gt;Pedestrian2: Red&lt;/div&gt;&lt;div&gt;7-segment: Countdown start&lt;/div&gt;" style="strokeWidth=2;html=1;shape=mxgraph.flowchart.start_1;whiteSpace=wrap;" parent="1" vertex="1">
          <mxGeometry x="-770" y="560" width="190" height="130" as="geometry" />
        </mxCell>
        <mxCell id="UEj1agWDMKfItvRINsRK-58" value="CarLights1: Yellow&lt;div&gt;CarLights2: Red&lt;/div&gt;&lt;div&gt;Pedestrian1: Flashing Red&lt;/div&gt;&lt;div&gt;Pedestrian2: Red&lt;/div&gt;&lt;div&gt;7-segment: Countdown&lt;/div&gt;" style="strokeWidth=2;html=1;shape=mxgraph.flowchart.start_1;whiteSpace=wrap;" parent="1" vertex="1">
          <mxGeometry x="-1090" y="265" width="180" height="110" as="geometry" />
        </mxCell>
        <mxCell id="UEj1agWDMKfItvRINsRK-60" value="3 sec" style="text;html=1;align=center;verticalAlign=middle;resizable=0;points=[];autosize=1;strokeColor=none;fillColor=none;" parent="1" vertex="1">
          <mxGeometry x="-840" y="360" width="50" height="30" as="geometry" />
        </mxCell>
        <mxCell id="UEj1agWDMKfItvRINsRK-61" value="Button 2 pressed?" style="strokeWidth=2;html=1;shape=mxgraph.flowchart.decision;whiteSpace=wrap;" parent="1" vertex="1">
          <mxGeometry x="-320" y="480" width="160" height="100" as="geometry" />
        </mxCell>
        <mxCell id="UEj1agWDMKfItvRINsRK-62" value="" style="endArrow=classic;html=1;rounded=0;exitX=0.5;exitY=0;exitDx=0;exitDy=0;exitPerimeter=0;entryX=0;entryY=0.5;entryDx=0;entryDy=0;entryPerimeter=0;" parent="1" source="UEj1agWDMKfItvRINsRK-61" target="UEj1agWDMKfItvRINsRK-54" edge="1">
          <mxGeometry width="50" height="50" relative="1" as="geometry">
            <mxPoint x="-220" y="460" as="sourcePoint" />
            <mxPoint x="-110" y="420" as="targetPoint" />
            <Array as="points">
              <mxPoint x="-240" y="445" />
            </Array>
          </mxGeometry>
        </mxCell>
        <mxCell id="UEj1agWDMKfItvRINsRK-64" value="" style="endArrow=classic;html=1;rounded=0;exitX=1;exitY=0.5;exitDx=0;exitDy=0;exitPerimeter=0;entryX=0;entryY=0.5;entryDx=0;entryDy=0;entryPerimeter=0;" parent="1" source="UEj1agWDMKfItvRINsRK-54" target="UEj1agWDMKfItvRINsRK-55" edge="1">
          <mxGeometry width="50" height="50" relative="1" as="geometry">
            <mxPoint x="-280" y="830" as="sourcePoint" />
            <mxPoint x="-230" y="780" as="targetPoint" />
          </mxGeometry>
        </mxCell>
        <mxCell id="UEj1agWDMKfItvRINsRK-65" value="8 sec" style="text;html=1;align=center;verticalAlign=middle;resizable=0;points=[];autosize=1;strokeColor=none;fillColor=none;" parent="1" vertex="1">
          <mxGeometry x="-220" y="450" width="50" height="30" as="geometry" />
        </mxCell>
        <mxCell id="UEj1agWDMKfItvRINsRK-66" value="No" style="text;html=1;align=center;verticalAlign=middle;resizable=0;points=[];autosize=1;strokeColor=none;fillColor=none;" parent="1" vertex="1">
          <mxGeometry x="-290" y="450" width="40" height="30" as="geometry" />
        </mxCell>
        <mxCell id="UEj1agWDMKfItvRINsRK-67" value="Yes" style="text;html=1;align=center;verticalAlign=middle;resizable=0;points=[];autosize=1;strokeColor=none;fillColor=none;" parent="1" vertex="1">
          <mxGeometry x="-290" y="590" width="40" height="30" as="geometry" />
        </mxCell>
        <mxCell id="UEj1agWDMKfItvRINsRK-68" value="4 sec" style="text;html=1;align=center;verticalAlign=middle;resizable=0;points=[];autosize=1;strokeColor=none;fillColor=none;" parent="1" vertex="1">
          <mxGeometry x="-230" y="590" width="50" height="30" as="geometry" />
        </mxCell>
        <mxCell id="UEj1agWDMKfItvRINsRK-70" value="" style="group" parent="1" vertex="1" connectable="0">
          <mxGeometry x="-320" y="-20" width="610" height="310" as="geometry" />
        </mxCell>
        <mxCell id="UEj1agWDMKfItvRINsRK-32" value="CarLights1: Green&lt;div&gt;CarLights2: Red&lt;/div&gt;&lt;div&gt;Pedestrian1: Red&lt;/div&gt;&lt;div&gt;Pedestrian2: Red&lt;/div&gt;&lt;div&gt;7-segment: void&lt;/div&gt;" style="strokeWidth=2;html=1;shape=mxgraph.flowchart.start_1;whiteSpace=wrap;movable=1;resizable=1;rotatable=1;deletable=1;editable=1;locked=0;connectable=1;" parent="UEj1agWDMKfItvRINsRK-70" vertex="1">
          <mxGeometry x="160" y="180" width="190" height="130" as="geometry" />
        </mxCell>
        <mxCell id="UEj1agWDMKfItvRINsRK-34" value="CarLights1: Yellow&lt;div&gt;CarLights2: Red&lt;/div&gt;&lt;div&gt;Pedestrian1: Red&lt;/div&gt;&lt;div&gt;Pedestrian2: Red&lt;/div&gt;&lt;div&gt;7-segment: void&lt;/div&gt;" style="strokeWidth=2;html=1;shape=mxgraph.flowchart.start_1;whiteSpace=wrap;movable=1;resizable=1;rotatable=1;deletable=1;editable=1;locked=0;connectable=1;" parent="UEj1agWDMKfItvRINsRK-70" vertex="1">
          <mxGeometry x="430" y="190" width="180" height="110" as="geometry" />
        </mxCell>
        <mxCell id="UEj1agWDMKfItvRINsRK-35" value="" style="endArrow=classic;html=1;rounded=0;exitX=1;exitY=0.5;exitDx=0;exitDy=0;exitPerimeter=0;entryX=0;entryY=0.5;entryDx=0;entryDy=0;entryPerimeter=0;movable=1;resizable=1;rotatable=1;deletable=1;editable=1;locked=0;connectable=1;" parent="UEj1agWDMKfItvRINsRK-70" source="UEj1agWDMKfItvRINsRK-32" target="UEj1agWDMKfItvRINsRK-34" edge="1">
          <mxGeometry width="50" height="50" relative="1" as="geometry">
            <mxPoint x="500" y="190" as="sourcePoint" />
            <mxPoint x="550" y="140" as="targetPoint" />
          </mxGeometry>
        </mxCell>
        <mxCell id="UEj1agWDMKfItvRINsRK-37" value="3 sec" style="text;html=1;align=center;verticalAlign=middle;resizable=1;points=[];autosize=1;strokeColor=none;fillColor=none;movable=1;rotatable=1;deletable=1;editable=1;locked=0;connectable=1;" parent="UEj1agWDMKfItvRINsRK-70" vertex="1">
          <mxGeometry x="370" y="210" width="50" height="30" as="geometry" />
        </mxCell>
        <mxCell id="UEj1agWDMKfItvRINsRK-40" value="Button 2 pressed?" style="strokeWidth=2;html=1;shape=mxgraph.flowchart.decision;whiteSpace=wrap;movable=1;resizable=1;rotatable=1;deletable=1;editable=1;locked=0;connectable=1;" parent="UEj1agWDMKfItvRINsRK-70" vertex="1">
          <mxGeometry y="100" width="160" height="100" as="geometry" />
        </mxCell>
        <mxCell id="UEj1agWDMKfItvRINsRK-45" value="" style="endArrow=classic;html=1;rounded=0;exitX=0.5;exitY=1;exitDx=0;exitDy=0;exitPerimeter=0;entryX=0;entryY=0.5;entryDx=0;entryDy=0;entryPerimeter=0;movable=1;resizable=1;rotatable=1;deletable=1;editable=1;locked=0;connectable=1;" parent="UEj1agWDMKfItvRINsRK-70" source="UEj1agWDMKfItvRINsRK-40" target="UEj1agWDMKfItvRINsRK-32" edge="1">
          <mxGeometry width="50" height="50" relative="1" as="geometry">
            <mxPoint x="150" y="450" as="sourcePoint" />
            <mxPoint x="200" y="400" as="targetPoint" />
            <Array as="points">
              <mxPoint x="80" y="245" />
            </Array>
          </mxGeometry>
        </mxCell>
        <mxCell id="UEj1agWDMKfItvRINsRK-48" value="Yes" style="text;html=1;align=center;verticalAlign=middle;resizable=1;points=[];autosize=1;strokeColor=none;fillColor=none;movable=1;rotatable=1;deletable=1;editable=1;locked=0;connectable=1;" parent="UEj1agWDMKfItvRINsRK-70" vertex="1">
          <mxGeometry x="30" y="70" width="40" height="30" as="geometry" />
        </mxCell>
        <mxCell id="UEj1agWDMKfItvRINsRK-49" value="No" style="text;html=1;align=center;verticalAlign=middle;resizable=1;points=[];autosize=1;strokeColor=none;fillColor=none;movable=1;rotatable=1;deletable=1;editable=1;locked=0;connectable=1;" parent="UEj1agWDMKfItvRINsRK-70" vertex="1">
          <mxGeometry x="30" y="210" width="40" height="30" as="geometry" />
        </mxCell>
        <mxCell id="UEj1agWDMKfItvRINsRK-52" value="4 sec" style="text;html=1;align=center;verticalAlign=middle;resizable=1;points=[];autosize=1;strokeColor=none;fillColor=none;movable=1;rotatable=1;deletable=1;editable=1;locked=0;connectable=1;" parent="UEj1agWDMKfItvRINsRK-70" vertex="1">
          <mxGeometry x="90" y="210" width="50" height="30" as="geometry" />
        </mxCell>
        <mxCell id="uPkC5kLJivQ958copBq6-4" value="CarLights1: Green&lt;div&gt;CarLights2: Red&lt;/div&gt;&lt;div&gt;Pedestrian1: Flashing Red&lt;/div&gt;&lt;div&gt;Pedestrian2: Red&lt;/div&gt;&lt;div&gt;7-segment: Countdown start&lt;/div&gt;" style="strokeWidth=2;html=1;shape=mxgraph.flowchart.start_1;whiteSpace=wrap;movable=1;resizable=1;rotatable=1;deletable=1;editable=1;locked=0;connectable=1;" parent="1" vertex="1">
          <mxGeometry x="-775" y="-40" width="190" height="130" as="geometry" />
        </mxCell>
        <mxCell id="UEj1agWDMKfItvRINsRK-2" value="7 sec" style="text;html=1;align=center;verticalAlign=middle;resizable=1;points=[];autosize=1;strokeColor=none;fillColor=none;movable=1;rotatable=1;deletable=1;editable=1;locked=0;connectable=1;" parent="1" vertex="1">
          <mxGeometry x="-1020" y="-12" width="50" height="30" as="geometry" />
        </mxCell>
        <mxCell id="UEj1agWDMKfItvRINsRK-44" value="" style="endArrow=classic;html=1;rounded=0;exitX=0.5;exitY=0;exitDx=0;exitDy=0;exitPerimeter=0;entryX=1;entryY=0.5;entryDx=0;entryDy=0;entryPerimeter=0;movable=1;resizable=1;rotatable=1;deletable=1;editable=1;locked=0;connectable=1;" parent="1" source="UEj1agWDMKfItvRINsRK-40" target="uPkC5kLJivQ958copBq6-4" edge="1">
          <mxGeometry width="50" height="50" relative="1" as="geometry">
            <mxPoint x="-1310" y="60" as="sourcePoint" />
            <mxPoint x="-1180" as="targetPoint" />
            <Array as="points">
              <mxPoint x="-240" y="25" />
            </Array>
          </mxGeometry>
        </mxCell>
        <mxCell id="UEj1agWDMKfItvRINsRK-46" value="" style="endArrow=classic;html=1;rounded=0;entryX=0.5;entryY=0;entryDx=0;entryDy=0;entryPerimeter=0;movable=1;resizable=1;rotatable=1;deletable=1;editable=1;locked=0;connectable=1;exitX=0;exitY=0.5;exitDx=0;exitDy=0;exitPerimeter=0;" parent="1" source="uPkC5kLJivQ958copBq6-4" target="UEj1agWDMKfItvRINsRK-58" edge="1">
          <mxGeometry width="50" height="50" relative="1" as="geometry">
            <mxPoint x="-930" y="130" as="sourcePoint" />
            <mxPoint x="-880" y="25" as="targetPoint" />
            <Array as="points">
              <mxPoint x="-1000" y="25" />
            </Array>
          </mxGeometry>
        </mxCell>
        <mxCell id="UEj1agWDMKfItvRINsRK-47" value="8 sec" style="text;html=1;align=center;verticalAlign=middle;resizable=1;points=[];autosize=1;strokeColor=none;fillColor=none;movable=1;rotatable=1;deletable=1;editable=1;locked=0;connectable=1;" parent="1" vertex="1">
          <mxGeometry x="-1290" y="30" width="50" height="30" as="geometry" />
        </mxCell>
        <mxCell id="UEj1agWDMKfItvRINsRK-74" value="" style="endArrow=classic;html=1;rounded=0;entryX=1;entryY=0.5;entryDx=0;entryDy=0;entryPerimeter=0;exitX=0.5;exitY=1;exitDx=0;exitDy=0;exitPerimeter=0;" parent="1" source="UEj1agWDMKfItvRINsRK-61" target="UEj1agWDMKfItvRINsRK-57" edge="1">
          <mxGeometry width="50" height="50" relative="1" as="geometry">
            <mxPoint x="-500" y="640" as="sourcePoint" />
            <mxPoint x="-450" y="590" as="targetPoint" />
            <Array as="points">
              <mxPoint x="-240" y="625" />
            </Array>
          </mxGeometry>
        </mxCell>
        <mxCell id="UEj1agWDMKfItvRINsRK-75" value="" style="endArrow=classic;html=1;rounded=0;exitX=0;exitY=0.5;exitDx=0;exitDy=0;exitPerimeter=0;entryX=0.5;entryY=1;entryDx=0;entryDy=0;entryPerimeter=0;" parent="1" source="UEj1agWDMKfItvRINsRK-57" target="UEj1agWDMKfItvRINsRK-58" edge="1">
          <mxGeometry width="50" height="50" relative="1" as="geometry">
            <mxPoint x="-660" y="410" as="sourcePoint" />
            <mxPoint x="-610" y="360" as="targetPoint" />
            <Array as="points">
              <mxPoint x="-1000" y="625" />
            </Array>
          </mxGeometry>
        </mxCell>
      </root>
    </mxGraphModel>
  </diagram>
</mxfile>
